<svg width="30" height="30" viewBox="0 0 30 30" fill="none" xmlns="http://www.w3.org/2000/svg">
<g clip-path="url(#clip0_2445_9150)">
<path d="M26.3135 13.3228L28.0412 14.352C28.1477 14.4153 28.236 14.5051 28.2972 14.6123C28.3585 14.7197 28.3907 14.8409 28.3907 14.9643C28.3907 15.0877 28.3585 15.209 28.2972 15.3162C28.236 15.4236 28.1477 15.5133 28.0412 15.5767L14.6953 23.5285L1.34953 15.5767C1.24294 15.5133 1.15472 15.4236 1.09346 15.3162C1.0322 15.209 1 15.0877 1 14.9643C1 14.8409 1.0322 14.7197 1.09346 14.6123C1.15472 14.5051 1.24294 14.4153 1.34953 14.352L3.07723 13.3228L14.6953 20.2456L26.3135 13.3228ZM26.3135 20.0315L28.0412 21.0607C28.1477 21.124 28.236 21.2137 28.2972 21.321C28.3585 21.4283 28.3907 21.5496 28.3907 21.673C28.3907 21.7963 28.3585 21.9176 28.2972 22.0249C28.236 22.1322 28.1477 22.222 28.0412 22.2853L15.4356 29.7961C15.212 29.9296 14.9561 30 14.6953 30C14.4345 30 14.1787 29.9296 13.9551 29.7961L1.34953 22.2853C1.24294 22.222 1.15472 22.1322 1.09346 22.0249C1.0322 21.9176 1 21.7963 1 21.673C1 21.5496 1.0322 21.4283 1.09346 21.321C1.15472 21.2137 1.24294 21.124 1.34953 21.0607L3.07723 20.0315L14.6953 26.9543L26.3135 20.0315ZM15.4341 0.203843L28.0412 7.7147C28.1477 7.77802 28.236 7.86776 28.2972 7.97511C28.3585 8.08239 28.3907 8.2037 28.3907 8.32702C28.3907 8.45041 28.3585 8.57165 28.2972 8.67894C28.236 8.78628 28.1477 8.87602 28.0412 8.93935L14.6953 16.8912L1.34953 8.93935C1.24294 8.87602 1.15472 8.78628 1.09346 8.67894C1.0322 8.57165 1 8.45041 1 8.32702C1 8.2037 1.0322 8.08239 1.09346 7.97511C1.15472 7.86776 1.24294 7.77802 1.34953 7.7147L13.9551 0.203843C14.1787 0.0704641 14.4345 0 14.6953 0C14.9561 0 15.212 0.0704641 15.4356 0.203843H15.4341Z" fill="#3585FC"/>
</g>
<defs>
<clipPath id="clip0_2445_9150">
<rect width="27.3913" height="30" fill="white" transform="translate(1)"/>
</clipPath>
</defs>
</svg>
