<svg width="32" height="33" viewBox="0 0 32 33" fill="none" xmlns="http://www.w3.org/2000/svg">
<path d="M14.9453 4.32227C21.0438 4.32232 25.9871 9.30941 25.9873 15.4629C25.9873 18.2967 24.9364 20.8817 23.209 22.8477L28.0996 27.5918L27.1816 28.5186L22.291 23.7773C20.3391 25.5337 17.7667 26.6025 14.9453 26.6025C8.84574 26.6025 3.90137 21.6153 3.90137 15.4629C3.90155 9.30969 8.84554 4.32227 14.9453 4.32227ZM14.9453 5.63379C9.56301 5.63379 5.20136 10.0332 5.20117 15.4629C5.20117 20.8915 9.5629 25.293 14.9453 25.293C20.3264 25.2929 24.6895 20.8915 24.6895 15.4629C24.6893 10.0332 20.3263 5.63384 14.9453 5.63379ZM14.9453 8.25488C17.4568 8.2549 19.4921 10.3082 19.4922 12.8418C19.4922 14.4023 18.7195 15.7782 17.543 16.6064V20.0488C17.543 21.4963 16.3801 22.6699 14.9453 22.6699C13.5094 22.6698 12.3467 21.4962 12.3467 20.0488V18.749C12.3466 18.7461 12.3457 18.7432 12.3457 18.7402V16.6064C11.1694 15.7782 10.3975 14.4022 10.3975 12.8418C10.3975 10.3082 12.4338 8.25488 14.9453 8.25488ZM13.6455 19.3965V20.0488C13.6455 20.7725 14.228 21.3603 14.9453 21.3604C15.6627 21.3604 16.2441 20.7726 16.2441 20.0488V19.3965H13.6455ZM14.9453 9.56641C13.1512 9.56641 11.6973 11.0332 11.6973 12.8418C11.6973 14.0545 12.3482 15.114 13.3213 15.6816C13.5223 15.7984 13.6455 16.0146 13.6455 16.248V17.4287H16.2441V16.248C16.2441 16.0146 16.3684 15.7984 16.5693 15.6816C17.5411 15.1139 18.1924 14.0544 18.1924 12.8418C18.1923 11.0332 16.7381 9.56642 14.9453 9.56641Z" fill="black"/>
</svg>
