<?xml version="1.0" encoding="UTF-8"?>
<svg width="347px" height="56px" viewBox="0 0 347 56" version="1.1" xmlns="http://www.w3.org/2000/svg" xmlns:xlink="http://www.w3.org/1999/xlink">
    <!-- Generator: Sketch 51.3 (57544) - http://www.bohemiancoding.com/sketch -->
    <title>MIZ_Logo_Horizontal_Black</title>
    <desc>Created with Sketch.</desc>
    <defs></defs>
    <g id="MIZ_Logo_Horizontal_Black" stroke="none" stroke-width="1" fill="none" fill-rule="evenodd">
        <path d="M2.235,53.765 L53.336,53.765 L53.336,2.734 L2.235,2.734 L2.235,53.765 Z M0,56 L55.569,56 L55.569,0.5 L0,0.5 L0,56 Z" id="Fill-1" fill="#0A0B09"></path>
        <path d="M44.147,37.22 L44.064,17.748 C44.051,14.834 44.431,13.401 46.546,12.508 L46.546,12.359 L38.511,12.359 L28.601,36.566 L17.606,12.347 L9.103,12.347 L9.103,12.496 C11.227,13.37 11.632,14.973 11.644,17.887 L11.726,36.829 C11.741,40.184 10.556,42.091 8.441,42.983 L8.441,43.132 L16.939,43.132 L16.938,42.983 C14.815,42.109 13.615,40.177 13.6,36.821 L13.505,14.788 L26.188,43.132 L27.778,43.132 L39.361,14.677 L39.458,37.239 C39.47,40.154 38.64,42.091 36.525,42.983 L36.525,43.132 L47.129,43.132 L47.128,42.983 C45.005,42.109 44.16,40.134 44.147,37.22" id="Fill-2" fill="#0A0B09"></path>
        <path d="M267.41,32.93 L259.658,15.052 L252.408,32.938 L267.41,32.93 Z M229.019,19.246 C229.02,19.191 229.019,18.919 229.019,18.863 C229.019,12.65 225.599,10.235 219.816,10.235 L212.297,10.237 L212.297,27.544 L219.427,27.544 C224.764,27.544 228.99,25.273 229.019,19.246 Z M283.406,48.569 L269.821,48.563 L269.82,48.307 C271.506,47.601 272.492,46.792 272.486,45.394 C272.482,44.463 272.126,43.3 271.481,41.904 L268.378,35.045 L251.53,35.06 L249.411,40.661 C248.892,41.886 248.431,43.227 248.437,44.682 C248.445,46.43 249.617,47.55 251.249,48.241 L251.25,48.57 L242.81,48.569 L242.766,48.569 L232.221,48.568 C230.946,47.409 229.961,45.053 229.035,42.329 L227.18,36.535 C225.917,32.748 224.187,29.761 219.538,29.704 L212.325,29.691 L212.357,41.403 C212.373,45.247 212.919,47.149 215.719,48.303 L215.72,48.569 L202.617,48.569 L202.617,48.303 C205.407,47.125 205.916,45.276 205.9,41.433 L205.893,15.474 C205.876,11.631 205.24,9.387 202.439,8.234 L202.443,7.97 L222.027,7.97 C230.412,7.934 236.179,10.695 236.179,18.242 C236.179,24.939 231.224,28.046 225.26,28.953 C230.488,29.668 233.308,32.555 234.655,36.594 L236.219,41.345 C237.133,44.088 238.12,45.517 239.597,46.55 C240.095,46.875 240.684,47.07 241.323,47.07 C242.345,47.07 243.253,46.587 243.833,45.836 L243.833,45.838 C244.645,44.814 245.306,43.542 245.737,42.517 L252.327,26.93 L254.924,20.506 L260.163,7.97 L263.057,7.97 L278.661,42.049 C280.423,45.826 281.128,47.152 283.405,48.307 L283.406,48.569 Z M326.108,48.372 C323.309,47.219 322.657,44.917 322.64,41.073 L322.647,15.268 C322.63,11.425 323.146,9.416 325.936,8.239 L325.935,7.975 L312.937,7.974 L312.937,8.239 C315.737,9.391 316.271,11.453 316.288,15.296 L316.332,25.846 L316.332,25.792 L294.409,25.792 L294.363,15.39 C294.347,11.547 294.861,9.416 297.652,8.239 L297.651,7.966 L284.63,7.953 L284.63,8.232 C287.431,9.385 288.071,11.4 288.087,15.243 L288.093,41.203 C288.11,45.046 287.606,47.126 284.815,48.303 L284.816,48.559 L297.826,48.567 L297.826,48.307 C295.025,47.155 294.462,45.088 294.446,41.245 L294.414,35.299 L294.414,27.951 L316.349,27.951 L316.349,29.687 L316.35,41.102 C316.367,44.946 315.906,47.127 313.116,48.304 L313.116,48.567 L326.109,48.561 L326.108,48.372 Z M134.533,40.748 L134.422,14.955 C134.406,11.112 134.907,9.411 137.697,8.234 L137.697,7.96 L126.991,7.964 L113.894,39.909 L99.392,7.969 L88.283,7.969 L88.283,8.234 C91.083,9.387 91.618,11.431 91.634,15.274 L91.638,40.256 C91.657,44.681 90.096,47.129 87.306,48.305 L87.306,48.567 L98.513,48.567 L98.512,48.372 C95.712,47.219 94.128,44.671 94.11,40.245 L93.985,11.187 L110.711,48.567 L112.808,48.567 L128.084,11.041 L128.212,40.797 C128.229,44.64 127.133,47.135 124.344,48.311 L124.344,48.567 L138.465,48.572 L138.464,48.304 C135.664,47.151 134.549,44.592 134.533,40.748 Z M185.855,46.412 L172.647,46.384 L197.835,8.164 L197.827,7.969 L169.537,7.969 L166.651,7.963 L164.799,18.646 L165.353,18.644 C168.356,13.101 170.322,10.08 176.837,10.05 L188.849,10.061 L163.656,48.318 L163.656,48.567 L196.914,48.567 L198.745,36.551 L198.14,36.554 C194.213,44.315 192.375,46.384 185.855,46.412 Z M346.509,8.234 L346.508,7.961 L333.558,7.969 L333.559,8.232 C336.359,9.385 336.91,11.385 336.926,15.228 L337.038,41.083 C337.054,44.927 336.54,47.179 333.75,48.355 L333.75,48.551 L346.704,48.551 L346.704,48.355 C343.904,47.202 343.369,44.9 343.352,41.056 L343.241,15.202 C343.224,11.359 343.719,9.411 346.509,8.234 Z M145.863,7.93 L158.88,7.928 L158.881,8.232 C156.091,9.409 155.577,11.311 155.593,15.154 L155.6,41.055 C155.617,44.898 156.151,47.149 158.952,48.303 L158.952,48.567 L145.887,48.567 L145.886,48.297 C148.677,47.119 149.239,44.926 149.222,41.083 L149.215,15.181 C149.199,11.339 148.664,9.385 145.864,8.232 L145.863,7.93 Z" id="Fill-3" fill="#0A0B09"></path>
    </g>
</svg>