<svg width="125" height="28" viewBox="0 0 125 28" fill="none" xmlns="http://www.w3.org/2000/svg">
<g clip-path="url(#clip0_997_3126)">
<path d="M38.5374 15.874C37.4332 16.9303 36.5692 18.0472 36.2893 19.5239C36.0427 20.8128 36.0709 22.0903 36.6883 23.2843C37.3026 24.4613 38.2849 25.038 39.6353 25.0144C41.0027 24.9883 42.0599 24.3438 42.9782 23.4167C44.1022 22.2832 44.9004 20.9244 45.524 19.4738C46.0913 18.1515 46.6 16.8 47.0764 15.4412C47.8515 13.2241 49.1845 11.4857 51.2738 10.3647C51.99 9.96312 52.7846 9.72087 53.6034 9.65452C55.3626 9.53876 56.5785 10.3501 57.3641 11.882C57.7987 12.7257 57.8718 13.6433 57.9345 14.5621C57.9742 15.1419 57.9815 15.7259 57.9826 16.3078C57.9909 19.0619 57.9888 21.817 58.0003 24.5712C58.0027 24.9534 58.0356 25.3349 58.0985 25.712C58.1925 26.2897 58.3691 26.8424 58.8538 27.3013H55.302C55.4931 26.9415 55.7313 26.6016 55.8588 26.2251C55.9843 25.8472 56.0499 25.4521 56.0531 25.054C56.074 22.7945 56.0795 20.5351 56.0698 18.2756C56.0698 17.1817 56.0646 16.0857 56.005 14.9938C55.9486 13.9729 55.7376 12.977 55.2059 12.0801C54.4683 10.836 53.4059 10.5305 52.1628 10.7078C50.6909 10.9163 49.6243 11.7829 48.7489 12.9165C47.8525 14.0772 47.3083 15.4057 46.95 16.8167C46.9341 16.885 46.9268 16.9551 46.928 17.0252C46.9343 19.6584 46.928 22.2915 46.9552 24.9236C46.9615 25.59 47.0074 26.2679 47.4253 26.8425C47.5297 26.9884 47.6447 27.1292 47.7784 27.3023H44.2266C44.3665 27.0942 44.4952 26.8787 44.612 26.6568C44.8711 26.1052 44.9505 25.5097 44.9745 24.908C44.9996 24.2479 44.9965 23.5878 44.9923 22.9266C44.9876 22.7618 44.958 22.5987 44.9045 22.4427C44.8095 22.157 44.6225 22.084 44.3822 22.2623C44.1623 22.4315 43.9606 22.623 43.7805 22.8338C43.1265 23.5857 42.4371 24.2938 41.5407 24.762C41.3 24.8822 41.0503 24.9837 40.7938 25.0655C40.6382 25.1176 40.5932 25.1812 40.6288 25.347C40.7875 26.0958 41.3276 26.5369 42.2281 26.6162C42.2085 26.6602 42.1828 26.7012 42.1519 26.7382C41.5136 27.2773 40.7938 27.6444 39.9581 27.7403C39.2686 27.8185 38.6565 27.5891 38.062 27.2794C37.5063 26.9905 36.9558 26.6954 36.3269 26.5817C35.839 26.4922 35.3353 26.5533 34.8832 26.7569C34.3201 27.0072 33.7748 27.3076 33.195 27.5109C31.7001 28.0323 30.0276 27.5954 29.1115 26.5004C28.1713 25.3752 27.743 23.1759 28.8064 21.5657C29.4896 20.5333 30.4141 19.77 31.4358 19.1078C32.8806 18.1692 34.4496 17.4862 36.0323 16.8229C36.6591 16.5601 37.2692 16.2619 37.7748 15.7916C38.0297 15.5657 38.2282 15.2834 38.3542 14.9672C38.4803 14.651 38.5305 14.3098 38.5008 13.9708C38.459 13.2658 38.3828 12.5692 38.155 11.8966C37.7424 10.6973 36.9276 9.98405 35.6583 9.82658C34.389 9.66912 33.1877 9.81094 32.073 10.4523C31.2655 10.9111 30.8571 11.615 30.8821 12.5578C30.8947 12.9999 30.9103 13.4442 30.8884 13.8863C30.856 14.536 30.4455 14.8885 29.8082 14.8509C29.3904 14.8259 29.0655 14.5496 28.9652 14.0897C28.7824 13.245 29.0133 12.4868 29.5116 11.8059C30.1676 10.9101 31.0838 10.3678 32.1107 10.007C33.9775 9.33197 36.02 9.31798 37.8959 9.96737C38.8717 10.2959 39.6457 10.9059 40.0782 11.8632C40.3509 12.4649 40.4031 13.123 40.4083 13.7758C40.4334 16.9387 40.447 20.1016 40.4679 23.2655C40.4679 23.6222 40.4856 23.9778 40.5086 24.3334C40.5201 24.5055 40.4679 24.5785 40.2903 24.6097C39.8023 24.702 39.3012 24.702 38.8132 24.6097C38.5833 24.5649 38.4998 24.4752 38.4998 24.2343C38.5175 21.5751 38.5227 18.9159 38.5321 16.2567L38.5374 15.874ZM39.0158 27.4296L39.0681 27.3743C38.6805 26.9645 38.6011 26.4514 38.5551 25.93C38.5375 25.7219 38.533 25.5129 38.5415 25.3043C38.55 25.25 38.5366 25.1945 38.5043 25.15C38.4721 25.1055 38.4235 25.0755 38.3692 25.0665C37.4906 24.8048 36.8983 24.2145 36.4731 23.4241C35.5434 21.6961 35.6959 18.627 37.242 16.898C37.4217 16.6968 37.5867 16.4809 37.8019 16.2212C37.312 16.4705 36.8899 16.6915 36.4637 16.9011C35.5079 17.3715 34.5343 17.7938 33.6076 18.31C32.5045 18.919 31.5183 19.6865 30.7651 20.7221C29.7811 22.0851 29.7257 23.4731 30.6408 24.8694C30.9233 25.2965 31.2609 25.6846 31.6447 26.0238C32.5139 26.7976 33.5115 27.0218 34.622 26.5713C35.2488 26.3148 35.9121 26.1615 36.5828 26.3544C37.0205 26.4806 37.4353 26.6944 37.8542 26.8821C38.2449 27.0521 38.6283 27.245 39.0158 27.4296Z" fill="#00685E"/>
<path d="M97.5446 27.3003H94.0763C94.2445 26.9332 94.4712 26.5703 94.5746 26.1855C94.888 25.0217 94.8671 23.8308 94.7679 22.6399C94.7575 22.5533 94.7328 22.4691 94.6947 22.3906C94.5903 22.1549 94.4231 22.0903 94.2173 22.2394C94.0135 22.3865 93.827 22.5561 93.6616 22.7452C93.1058 23.3823 92.5459 24.0185 91.8209 24.4669C91.4322 24.6941 91.0263 24.8907 90.607 25.055C90.4399 25.1249 90.3981 25.1906 90.4409 25.3585C90.5136 25.6922 90.693 25.9932 90.9522 26.2161C91.2113 26.439 91.536 26.5717 91.8773 26.5943L92.0235 26.6068L92.0612 26.6798C91.7572 26.8883 91.4678 27.1136 91.1481 27.2888C90.0982 27.8665 89.0369 27.9082 87.9619 27.3253C87.5416 27.0985 87.108 26.8972 86.6634 26.7225C86.3408 26.5886 85.9935 26.5239 85.6441 26.5327C85.2948 26.5415 84.9512 26.6236 84.6358 26.7736C84.009 27.0573 83.3999 27.4118 82.7439 27.5703C81.2511 27.9301 79.8847 27.6746 78.8504 26.417C77.9646 25.3408 77.4548 23.0466 78.7909 21.2863C79.6016 20.2194 80.6473 19.4394 81.7849 18.7668C83.075 18.0024 84.4446 17.4028 85.8246 16.824C86.467 16.5549 87.0938 16.2504 87.6005 15.7582C88.033 15.3411 88.2941 14.8437 88.2931 14.2357C88.3029 13.4875 88.2008 12.742 87.9901 12.0238C87.5973 10.7443 86.7574 9.97364 85.4057 9.8193C84.1667 9.67643 82.9685 9.8193 81.8705 10.445C81.0662 10.9059 80.6525 11.6088 80.6744 12.5505C80.6849 12.9937 80.7037 13.4379 80.6807 13.8801C80.6483 14.5433 80.2325 14.8948 79.5817 14.8468C79.1638 14.8165 78.8504 14.5339 78.7543 14.0667C78.5747 13.22 78.8181 12.465 79.3185 11.7871C79.9724 10.9018 80.8854 10.3657 81.8998 10.007C83.7743 9.32707 85.8265 9.31454 87.7091 9.97155C88.6921 10.3053 89.4683 10.9289 89.8914 11.9039C90.1547 12.5098 90.1975 13.1678 90.2048 13.8206C90.2299 16.922 90.2435 20.0234 90.2644 23.1258C90.2644 23.5336 90.2852 23.9413 90.3051 24.349C90.3124 24.4961 90.2696 24.5722 90.116 24.6004C89.6288 24.6971 89.1278 24.7017 88.6389 24.6139C88.3892 24.567 88.2973 24.4794 88.2994 24.2104C88.3202 21.5522 88.3276 18.8919 88.338 16.2337V15.9355L88.268 15.9053C88.1406 16.0429 88.0152 16.1826 87.8846 16.3224C86.9507 17.2755 86.2738 18.3674 86.0502 19.7032C85.8413 20.9213 85.8904 22.1174 86.4608 23.2395C87.0729 24.4439 88.057 25.0425 89.4307 25.0123C90.8044 24.982 91.8836 24.3219 92.8123 23.3792C93.7807 22.3948 94.4764 21.2226 95.0844 19.9952C95.7833 18.5832 96.3265 17.1087 96.8185 15.6153C97.4568 13.6778 98.5182 12.0489 100.223 10.8778C101.177 10.2229 102.208 9.73796 103.372 9.6514C105.088 9.52522 106.401 10.3188 107.164 11.8705C107.645 12.8445 107.733 13.8916 107.746 14.9427C107.778 17.8011 107.772 20.6595 107.783 23.5179C107.783 23.9611 107.775 24.4054 107.805 24.8475C107.863 25.7183 107.957 26.5838 108.641 27.293H105.071C105.098 27.2392 105.128 27.1873 105.161 27.1376C105.605 26.5951 105.85 25.9172 105.854 25.2167C105.86 22.8442 105.873 20.4728 105.869 18.1004C105.869 17.0576 105.863 16.0148 105.804 14.9719C105.746 13.951 105.538 12.954 104.999 12.0614C104.323 10.9403 103.244 10.4763 101.95 10.6953C100.453 10.9476 99.3758 11.8174 98.4952 12.9812C97.6386 14.1147 97.111 15.4037 96.7621 16.7708C96.7398 16.8637 96.729 16.9589 96.7297 17.0545C96.737 19.6699 96.7297 22.2853 96.7642 24.9007C96.7781 25.4115 96.8614 25.9181 97.0118 26.4066C97.1058 26.7267 97.3565 26.9968 97.5446 27.3003ZM87.6099 16.2118C87.1126 16.4653 86.6843 16.6968 86.2456 16.9043C85.0588 17.4632 83.8429 17.9555 82.7491 18.7032C81.8768 19.3018 81.063 19.9629 80.4686 20.8535C79.7593 21.914 79.5525 23.0434 80.0873 24.2354C80.4429 25.0435 81.0102 25.741 81.7295 26.2543C82.2686 26.6401 82.8786 26.8591 83.542 26.7757C83.9021 26.7208 84.2549 26.6261 84.594 26.4931C85.4464 26.1886 86.279 26.1803 87.1011 26.5974C87.4971 26.7955 87.8909 26.9999 88.29 27.1928C88.4592 27.2742 88.6389 27.3336 88.8123 27.4014C88.4205 26.8633 88.3683 26.2668 88.3453 25.663C88.3385 25.5588 88.3385 25.4543 88.3453 25.3502C88.362 25.1864 88.3067 25.102 88.1364 25.055C87.6148 24.904 87.1491 24.6034 86.7971 24.1905C86.1139 23.4251 85.8058 22.497 85.7243 21.5032C85.5843 19.7835 85.9228 18.1849 87.0823 16.8355C87.2484 16.6477 87.4072 16.4538 87.6099 16.2118Z" fill="#00685E"/>
<path d="M0 11.0863L3.28021 9.77126V15.5475L3.34394 15.5652C3.38259 15.4672 3.42542 15.3713 3.45885 15.2712C4.25383 12.9363 5.83858 11.3313 8.0616 10.324C8.96105 9.91726 9.90751 9.69097 10.902 9.78586C12.6926 9.95689 14.0067 11.1134 14.3744 12.8872C14.5134 13.5547 14.5301 14.2429 14.599 14.9281C14.5965 15.0278 14.6161 15.1268 14.6565 15.218C14.6823 15.173 14.7057 15.1267 14.7265 15.0793C15.6615 12.6484 17.3225 10.9298 19.7878 10.0476C20.892 9.65342 22.0401 9.55852 23.1558 10.0382C24.5065 10.6201 25.2295 11.7412 25.546 13.1073C25.7215 13.9134 25.8097 14.7361 25.8092 15.5611C25.8437 18.5592 25.8259 21.5563 25.8406 24.5544C25.846 24.9974 25.8844 25.4394 25.9555 25.8767C26.0432 26.4409 26.2281 26.9738 26.7244 27.4003H23.0785C23.0873 27.3703 23.1007 27.3418 23.1182 27.3158C23.6165 26.7673 23.8286 26.1072 23.8557 25.3856C23.8818 24.691 23.885 23.9955 23.886 23.2999C23.886 20.884 23.886 18.4681 23.886 16.0522C23.886 15.1293 23.8463 14.2085 23.6144 13.3106C23.1454 11.494 21.3423 10.0497 18.9584 10.9643C18.1387 11.266 17.3896 11.7322 16.7573 12.3341C16.125 12.9361 15.623 13.6609 15.2823 14.464C15.0409 15.0104 14.8644 15.584 14.6638 16.1482C14.6264 16.264 14.608 16.3852 14.6095 16.5069C14.6151 19.3309 14.6234 22.1549 14.6346 24.9789C14.6421 25.3261 14.67 25.6725 14.7181 26.0165C14.7489 26.2894 14.8347 26.5533 14.9704 26.7923C15.1062 27.0312 15.289 27.2402 15.5079 27.4066H11.8015C11.8253 27.3654 11.8522 27.326 11.8819 27.2887C12.376 26.7986 12.6058 26.1896 12.6497 25.5159C12.6852 24.9695 12.7009 24.422 12.702 23.8745C12.7068 21.2848 12.7068 18.6955 12.702 16.1065C12.702 15.0699 12.6654 14.0281 12.2601 13.0562C11.7513 11.8361 10.9177 10.9465 9.55232 10.7056C8.7542 10.5649 7.99161 10.738 7.27393 11.0936C5.76754 11.8392 4.70826 13.0145 4.05326 14.5453C3.77434 15.1982 3.56958 15.8833 3.34289 16.558C3.30169 16.6995 3.28335 16.8466 3.28857 16.9939C3.28857 19.2881 3.27395 21.5824 3.2938 23.8766C3.30006 24.5951 3.38259 25.3136 3.45258 26.03C3.50482 26.5515 3.79418 26.9832 4.1525 27.4118H0.541133C0.546357 27.3868 0.541131 27.3565 0.557845 27.343C1.12196 26.7871 1.32776 26.0822 1.32985 25.3261C1.3389 21.5115 1.33681 17.6975 1.32358 13.8842C1.32289 13.5017 1.27944 13.1204 1.19404 12.7475C1.00183 11.9132 0.761553 11.5983 0 11.0863Z" fill="#00685E"/>
<path d="M73.4286 12.2772C73.4286 12.1333 73.4286 12.0687 73.4286 11.9957C73.4286 9.83181 73.4286 7.66898 73.4098 5.5051C73.4015 4.77512 73.3419 4.04514 73.2677 3.3235C73.1831 2.50592 72.924 1.77281 72.0142 1.38175L75.3215 0C75.3299 0.177281 75.3403 0.295119 75.3403 0.411916C75.3403 7.75345 75.3438 15.0953 75.3508 22.4376C75.3508 23.1237 75.3706 23.811 75.4197 24.4951C75.4709 25.2167 75.7133 25.8695 76.2837 26.3586C76.4007 26.4629 76.5344 26.539 76.6963 26.6527L73.4432 28V24.1676L73.3889 24.1582C73.2437 24.445 73.1142 24.7412 72.9512 25.0175C71.9891 26.6433 70.5391 27.5725 68.6942 27.853C66.5809 28.1742 64.6608 27.6955 63.0364 26.2606C61.8873 25.2459 61.156 23.958 60.7737 22.4928C59.8157 18.8638 60.5647 15.5872 62.8755 12.6433C63.8157 11.4388 64.9554 10.4857 66.4054 9.97363C68.5877 9.20298 70.5495 9.61177 72.2555 11.1875C72.6336 11.5316 73.0045 11.882 73.4286 12.2772ZM73.4286 18.9336C73.4286 17.9179 73.4129 16.9001 73.4338 15.8844C73.4534 15.1281 73.3615 14.373 73.1612 13.6434C72.9199 12.7716 72.5657 11.954 71.9379 11.2845C71.1774 10.4752 70.2153 10.0654 69.1278 9.93401C67.3853 9.72544 65.858 10.1686 64.6629 11.4983C63.4678 12.8279 63.0019 14.4453 62.7669 16.1566C62.5983 17.4242 62.5959 18.7083 62.7595 19.9765C62.9403 21.45 63.3216 22.863 64.126 24.1238C65.1946 25.7986 66.6603 26.8831 68.7141 26.9833C71.2547 27.1063 73.4286 25.0186 73.4286 22.4814V18.9336Z" fill="#00685E"/>
<path d="M124.174 26.6954C123.347 27.5453 121.739 28.2743 120.315 27.5297C119.706 27.2175 119.074 26.9508 118.425 26.7319C117.853 26.5317 117.276 26.6339 116.722 26.879C116.214 27.1052 115.724 27.3858 115.196 27.5495C113.838 27.9666 112.519 27.9072 111.379 26.9488C110.521 26.2272 110.209 25.2344 110.119 24.1509C109.993 22.6221 110.688 21.4541 111.747 20.4489C112.852 19.406 114.15 18.65 115.517 18.0034C116.585 17.4976 117.668 17.0232 118.741 16.5268C118.974 16.4098 119.2 16.281 119.42 16.1409C119.709 15.9753 119.952 15.7388 120.125 15.4536C120.297 15.1684 120.394 14.844 120.406 14.511C120.468 13.4609 120.321 12.4253 119.842 11.4722C119.657 11.085 119.382 10.7477 119.039 10.4888C118.697 10.2298 118.297 10.0567 117.874 9.98405C116.62 9.74212 115.393 9.85474 114.229 10.4012C113.221 10.8746 112.719 11.6672 112.766 12.7945C112.794 13.2273 112.79 13.6615 112.756 14.0939C112.702 14.6226 112.361 14.9031 111.851 14.9187C111.342 14.9344 110.996 14.6841 110.885 14.1595C110.705 13.3128 110.954 12.5578 111.453 11.881C112.157 10.9247 113.152 10.3803 114.254 10.0237C115.963 9.46825 117.802 9.44968 119.522 9.9705C120.629 10.2927 121.542 10.9163 121.982 12.0155C122.191 12.5369 122.25 13.1261 122.306 13.6913C122.371 14.3473 122.373 15.0095 122.376 15.6727C122.389 18.4529 122.386 21.2331 122.403 24.0153C122.405 24.4456 122.447 24.8747 122.53 25.297C122.669 25.9873 123.089 26.6777 124.081 26.662C124.113 26.6692 124.145 26.6804 124.174 26.6954ZM120.923 27.5088C120.791 27.1782 120.641 26.9238 120.591 26.6506C120.5 26.1827 120.449 25.7078 120.44 25.2313C120.427 22.182 120.433 19.1328 120.433 16.0836C120.433 15.9793 120.423 15.875 120.414 15.7102C119.386 16.6394 118.162 17.0868 116.993 17.6384C116.459 17.8908 115.924 18.1473 115.417 18.4466C114.315 19.0963 113.307 19.8628 112.584 20.9421C112.029 21.7691 111.767 22.669 111.989 23.6629C112.172 24.4825 112.61 25.1698 113.19 25.7642C114.186 26.7851 115.33 27.1563 116.716 26.5755C117.477 26.2626 118.267 26.2991 119.029 26.6245C119.301 26.7403 119.563 26.879 119.83 27.0041C120.181 27.1678 120.535 27.3295 120.923 27.5088Z" fill="#00685E"/>
<path d="M43.6187 10.9988L46.9124 9.67438C46.9208 9.80682 46.9312 9.89754 46.9312 9.98723C46.9312 11.4993 46.9312 13.0114 46.9312 14.5235C46.9362 14.6361 46.9235 14.7486 46.8936 14.8572C46.3932 16.3829 45.9085 17.9148 45.217 19.3706C45.1768 19.4671 45.1097 19.55 45.0237 19.6094C45.0237 19.5114 45.0237 19.4123 45.0237 19.3133C45.0028 17.3673 44.9892 15.4214 44.9527 13.4734C44.9405 13.1097 44.8829 12.7488 44.7813 12.3993C44.5756 11.6683 44.3144 11.3711 43.6187 10.9988Z" fill="#00685E"/>
<path d="M94.8222 19.6271C94.8222 19.4186 94.8222 19.21 94.8222 19.0015C94.8034 17.1786 94.7832 15.3557 94.7616 13.5328C94.7586 13.0294 94.6586 12.5313 94.467 12.0656C94.3737 11.8234 94.2297 11.6039 94.0444 11.4219C93.8592 11.2399 93.6371 11.0995 93.3931 11.0102L96.7119 9.67438C96.7192 9.81307 96.7286 9.9038 96.7286 9.99557C96.7286 11.507 96.7286 13.0177 96.7286 14.5277C96.7348 14.6489 96.7199 14.7703 96.6848 14.8864C96.1736 16.2964 95.6579 17.7049 95.1376 19.112C95.0604 19.2929 94.9739 19.4697 94.8786 19.6417L94.8222 19.6271Z" fill="#00685E"/>
</g>
<defs>
<clipPath id="clip0_997_3126">
<rect width="124.174" height="28" fill="white"/>
</clipPath>
</defs>
</svg>
