<?xml version="1.0" encoding="utf-8"?>
<!-- Generator: Adobe Illustrator 27.9.0, SVG Export Plug-In . SVG Version: 6.00 Build 0)  -->
<svg version="1.1" id="Layer_1" xmlns="http://www.w3.org/2000/svg" xmlns:xlink="http://www.w3.org/1999/xlink" x="0px" y="0px"
	 viewBox="0 0 360 81.2" style="enable-background:new 0 0 360 81.2;" xml:space="preserve">
<style type="text/css">
	.st0{fill:#222831;}
	.st1{fill:url(#SVGID_1_);}
</style>
<g>
	<g>
		<g>
			<path class="st0" d="M130.9,34.7c-2.9-4-5.5-7.6-8.1-11.4l-0.1,0.1c0.1,4.5,0.1,9,0.1,13.5v17h-14.5V0.8h14.2L136.5,20
				c2.9,4,5.5,7.6,8.1,11.4l0.1-0.1c-0.1-4.5-0.1-9-0.1-13.5v-17h14.5v53.1H145L130.9,34.7z"/>
			<path class="st0" d="M194.1,0c16,0,28.4,12,28.4,27.4c0,15.3-12.4,27.4-28.4,27.4c-16,0-28.4-12-28.4-27.4
				C165.7,12,178.1,0,194.1,0z M194.1,41.2c7.5,0,13.3-6.1,13.3-13.8c0-7.7-5.8-13.8-13.3-13.8c-7.5,0-13.3,6.1-13.3,13.8
				C180.8,35.1,186.6,41.2,194.1,41.2z"/>
			<path class="st0" d="M221,0.8h16.2l7.3,20.8c1.5,4.4,3,8.7,4.4,12.9h0.1c1.5-4.3,3.1-8.9,4.6-13.1l7.6-20.6h15.6l-20.3,53.1
				h-15.2L221,0.8z"/>
			<path class="st0" d="M280.5,0.8h34.6v12.8h-19.5v6.7h16.5v12h-16.5v8.8H316v12.8h-35.5V0.8z"/>
			<path class="st0" d="M322.7,0.8h15.1v40.3H360v12.8h-37.3V0.8z"/>
		</g>
		<g>
			<path class="st0" d="M108.6,64.2h1.5l3.1,9.9c0.5,1.6,1,3.3,1.5,5h0c0.5-1.6,1-3.3,1.5-5l3.1-9.9h1.1l3.1,10
				c0.5,1.6,1,3.3,1.5,4.9h0c0.5-1.6,1-3.4,1.5-5l3.1-9.9h1.5l-5.4,17h-1.5l-3.1-9.8c-0.5-1.5-0.9-3-1.3-4.5h0
				c-0.4,1.5-0.9,3-1.4,4.5l-3.1,9.7h-1.6L108.6,64.2z"/>
			<path class="st0" d="M165.8,64.2h9.4v1.3h-8v6.2h7.1V73h-7.1v6.9h8.2v1.3h-9.6V64.2z"/>
			<path class="st0" d="M215.8,64.2h1.5l7,17h-1.6l-2.1-5.1h-8.3l-2.1,5.1h-1.5L215.8,64.2z M220.2,74.9l-1.4-3.5
				c-0.7-1.8-1.6-4-2.2-5.5h0c-0.6,1.6-1.4,3.7-2.2,5.6l-1.5,3.5H220.2z"/>
			<path class="st0" d="M258.6,64.2h1.4v15.7h8.4v1.3h-9.9V64.2z"/>
			<path class="st0" d="M305.3,65.6h-5.9v-1.3h13.2v1.3h-5.9v15.7h-1.4V65.6z"/>
			<path class="st0" d="M346.9,64.2h1.4v7.5h10.3v-7.5h1.4v17h-1.4v-8.2h-10.3v8.2h-1.4V64.2z"/>
		</g>
	</g>
	
		<g id="SvgjsG1055_00000142855796457296743360000012704059848363725456_" transform="matrix(1.5384615384615385,0,0,1.5384615384615385,-26.923076923076923,-32.62615438608023)">
		<linearGradient id="SVGID_1_" gradientUnits="userSpaceOnUse" x1="17.5" y1="47.6116" x2="111.323" y2="47.6116">
			<stop  offset="0" style="stop-color:#B88746"/>
			<stop  offset="1" style="stop-color:#FDF5A6"/>
		</linearGradient>
		<path class="st1" d="M49.9,36.2l2.1-3.7h-4.3l-2.1,3.7L38,49.3L35.9,53l2.1,3.7l2.1-3.7L49.9,36.2z M17.5,21.2l16.2,28.1l9.7-16.9
			h-4.3L33.7,42l-9.8-17.1h48.2L48,66.6l-3.6-6.2l16.1-27.9h-4.3L40.1,60.4L48,74l30.5-52.8H17.5z"/>
	</g>
</g>
</svg>
