<svg width="273" height="41" viewBox="0 0 273 41" fill="none" xmlns="http://www.w3.org/2000/svg">
<path d="M8.8432 0.44783C4.76346 1.8033 1.65875 4.98249 0.401473 9.0982C-0.111702 10.774 -0.137361 14.9144 0.350155 16.6395C1.27387 19.942 4.07067 23.3922 6.94445 24.7231C11.8709 27.0397 15.9507 26.2511 20.6462 22.16C21.3903 21.4946 22.1601 20.9524 22.3397 20.9524C22.8272 20.977 27.1122 24.3287 28.0103 25.4131C29.6524 27.3601 29.0879 29.7013 26.4964 31.6729C25.6753 32.2891 24.8543 32.8805 24.6746 32.9545C24.3667 33.0777 22.1601 31.4758 18.6705 28.5184L16.9514 27.089L15.1552 27.4833C14.0263 27.7544 12.7177 27.8776 11.563 27.8037C10.5623 27.7544 9.74126 27.779 9.74126 27.853C9.74126 28.2966 17.2336 34.8275 22.1344 38.6721L24.4181 40.4219L25.4701 39.6332C28.8057 37.1687 31.8848 34.6303 32.6802 33.6938C34.5019 31.5497 35.323 28.6909 34.8355 26.1278C34.348 23.4908 33.0394 21.8889 28.6004 18.3647C25.9063 16.2452 25.0082 15.2101 24.0845 13.2139L23.5457 12.0309L22.4937 12.9921C21.9035 13.5096 20.133 15.1116 18.5935 16.541C16.9514 18.0197 15.2322 19.3505 14.5394 19.6709C11.486 21.051 8.17607 19.6955 6.61089 16.3931C6.14903 15.4073 6.0464 14.7172 6.0464 12.9428C6.0464 10.9959 6.12337 10.5276 6.73918 9.29535C8.0991 6.65835 10.7676 5.13036 13.3078 5.54933C15.3349 5.86971 17.5415 7.86595 18.4396 10.1826L18.7218 10.8973L20.4666 9.41858C21.416 8.6053 22.4423 7.66879 22.7759 7.32376C23.366 6.73228 23.366 6.68299 22.9298 5.89436C22.2627 4.63747 19.8251 2.2962 18.3626 1.50756C17.6441 1.11324 16.4382 0.620346 15.6684 0.39854C13.7953 -0.118999 10.4854 -0.0943565 8.8432 0.44783Z" fill="#DA520C"/>
<path d="M32.7061 0.447573C29.704 1.43337 27.1895 3.55283 25.9578 6.1159C24.9828 8.13679 24.9828 10.897 25.9578 12.8193C27.1895 15.2838 29.0369 16.6886 33.1166 18.2412C37.1707 19.7938 36.9398 19.3502 36.9398 25.3636V30.4404L38.351 28.9617C40.3524 26.8669 42.0202 24.6242 42.4564 23.4166C42.6617 22.8498 42.8413 21.6176 42.8413 20.7303C42.8413 16.9597 40.0188 14.2241 34.5279 12.6961C32.3725 12.1046 31.2949 11.0449 31.2949 9.49225C31.2949 8.06285 31.8337 7.17563 33.1936 6.31306C34.1686 5.69694 34.4252 5.64765 36.4523 5.72158C38.3254 5.79552 38.8642 5.91874 40.3011 6.6088C41.1991 7.05241 42.3794 7.76711 42.9439 8.21072L43.9446 9.024L41.7123 10.4534C40.5063 11.242 39.4543 11.9814 39.3774 12.08C39.3004 12.2032 39.9675 12.77 40.8399 13.3862C41.738 14.0023 43.5341 15.5303 44.8427 16.7871C47.4855 19.3502 47.3059 19.3502 48.2553 17.009C48.9481 15.3085 49.179 11.7842 48.7428 9.78799C48.3836 8.03821 47.0237 5.4012 45.792 4.02108C44.5604 2.64097 42.0459 1.08834 40.0445 0.496862C37.9661 -0.143906 34.5279 -0.16855 32.7061 0.447573Z" fill="#DA520C"/>
<path d="M263.095 1.23672C258.041 2.22252 255.116 7.20079 256.86 11.7355C259.349 18.1431 269.048 18.636 272.204 12.5241C272.897 11.2179 273 10.7497 273 8.99987C273 7.25008 272.897 6.78183 272.204 5.47565C271.768 4.63772 270.947 3.57799 270.383 3.08509C268.561 1.58175 265.379 0.793114 263.095 1.23672ZM266.867 3.20831C268.099 3.55334 270.126 5.27849 270.716 6.53538C271.306 7.76762 271.358 10.035 270.793 11.2918C269.408 14.5203 264.969 15.999 261.684 14.3478C257.066 12.0312 257.066 5.96854 261.684 3.65192C263.172 2.91258 265.097 2.74006 266.867 3.20831Z" fill="#DA520C"/>
<path d="M261.967 9.09858V13.0664H262.737C263.481 13.0664 263.481 13.0418 263.558 11.5138C263.635 9.98579 263.635 9.98579 264.456 9.91186C265.405 9.81328 266.329 10.5526 266.329 11.3906C266.329 12.6721 266.611 13.0664 267.483 13.0664H268.305L267.945 11.5138C267.74 10.6758 267.432 9.83792 267.227 9.64076C266.919 9.34502 266.97 9.2218 267.509 8.80284C268.048 8.40852 268.125 8.13742 268.074 7.32414C267.945 5.8208 267.176 5.40184 264.302 5.22932L261.967 5.1061V9.09858ZM266.021 6.8066C267.227 7.59524 266.483 8.70426 264.712 8.7289C263.66 8.75355 263.635 8.7289 263.558 7.94026C263.506 7.47201 263.532 6.95447 263.609 6.75731C263.789 6.28906 265.302 6.3137 266.021 6.8066Z" fill="#DA520C"/>
<path d="M86.4609 19.7206V34.0146H89.2577H92.0802L92.1572 27.4098C92.2342 21.1254 92.2598 20.7803 92.8243 19.5481C93.5428 18.0694 94.1842 17.4286 95.5185 16.8864C96.8784 16.3442 98.5719 16.6153 99.6752 17.5518C100.932 18.5869 101.086 19.7206 101.086 27.3605V34.0146H103.909H106.731V27.6563C106.731 18.4144 106.398 16.4921 104.576 14.7423C103.165 13.3869 101.805 12.9432 98.9054 12.9432C95.6724 12.9432 94.3125 13.4608 93.0809 15.1613L92.2342 16.3196L92.1572 10.8731L92.1059 5.42655H89.2834H86.4609V19.7206Z" fill="#333333"/>
<path d="M144.27 6.16588C143.244 6.75736 142.91 7.34884 142.91 8.60573C142.91 10.0351 143.937 11.0949 145.502 11.2674C147.016 11.4399 148.222 10.8731 148.709 9.7394C149.171 8.65502 149.171 8.28535 148.658 7.27491C147.939 5.79621 145.81 5.25402 144.27 6.16588Z" fill="#333333"/>
<path d="M69.8854 7.02814C65.1899 8.01394 61.649 11.3164 60.1351 16.1714C59.468 18.2169 59.468 23.4417 60.1351 25.5118C61.2384 29.0114 63.676 31.9441 66.5755 33.275C71.6815 35.567 78.789 34.6058 82.1247 31.1309C83.3563 29.8493 84.5622 27.4588 84.7932 25.8076L84.9728 24.6493H82.2529C80.2772 24.6493 79.4818 24.7478 79.4305 24.945C78.2245 28.9621 75.8639 30.8105 72.3487 30.4901C68.0637 30.1204 65.4208 26.3498 65.4208 20.5828C65.4208 14.4955 68.3203 10.7742 73.0671 10.7742C76.2231 10.7988 78.2502 12.1789 79.1482 14.9145L79.5844 16.27H82.3556H85.1011L84.8701 14.9638C84.1004 10.7742 80.8674 7.81677 76.2488 7.00349C73.8112 6.58453 71.9125 6.60917 69.8854 7.02814Z" fill="#333333"/>
<path d="M186.402 6.90471C181.989 7.66871 179.295 10.0346 178.935 13.4603C178.628 16.2205 179.782 18.34 182.271 19.6215L183.708 20.3608L182.322 20.7798C180.603 21.2973 178.807 22.8007 178.037 24.3533C177.576 25.2159 177.447 25.9306 177.447 27.2368C177.447 31.0321 179.603 33.2255 184.247 34.162C186.453 34.6056 192.766 34.5317 196.076 33.9895L198.077 33.6691L198.128 28.124L198.205 22.5542L200.078 22.4803L201.926 22.4064V20.3362V18.2414H200.001H198.077V16.5162V14.7911H195.383H192.689V16.5162V18.2414H190.2C186.402 18.2414 185.017 17.3295 184.811 14.7418C184.683 13.0906 185.299 11.9323 186.684 11.2422C187.531 10.7986 188.096 10.7247 190.2 10.774C191.585 10.7986 192.945 10.8972 193.202 10.9711C193.689 11.119 193.715 10.9958 193.715 9.17205C193.715 7.52084 193.638 7.17581 193.279 7.02794C192.509 6.75685 187.762 6.65827 186.402 6.90471ZM192.637 26.2263C192.663 28.2472 192.612 29.997 192.483 30.1202C192.15 30.4406 188.865 30.6624 187.223 30.4653C185.607 30.2681 184.247 29.5041 183.759 28.5183C183.297 27.5818 183.323 25.6102 183.811 24.6737C184.58 23.2443 187.326 22.431 191.021 22.5296L192.56 22.5542L192.637 26.2263Z" fill="#333333"/>
<path d="M217.679 7.02814C212.984 8.01394 209.443 11.3164 207.929 16.1714C207.262 18.2169 207.262 23.4417 207.929 25.5118C209.032 29.0114 211.47 31.9441 214.369 33.275C219.475 35.5669 226.583 34.6058 229.919 31.1309C231.15 29.8493 232.356 27.4588 232.587 25.8076L232.767 24.6493H230.047C228.071 24.6493 227.276 24.7478 227.224 24.945C226.018 28.9621 223.658 30.8105 220.143 30.4901C215.858 30.1204 213.215 26.3498 213.215 20.5828C213.215 14.4955 216.114 10.7742 220.861 10.7742C224.017 10.7988 226.044 12.1789 226.942 14.9145L227.378 16.27H230.15H232.895L232.664 14.9638C231.894 10.7742 228.661 7.81678 224.043 7.0035C221.605 6.58453 219.706 6.60918 217.679 7.02814Z" fill="#333333"/>
<path d="M118.278 9.36887L116.713 11.5869H118.329L119.946 11.5623L122.383 9.36887L124.821 7.17547L122.332 7.15083H119.843L118.278 9.36887Z" fill="#333333"/>
<path d="M115.84 13.1397C109.502 14.6923 106.295 21.3218 108.553 28.1731C109.836 32.1163 113.479 34.5068 118.2 34.5068C122.691 34.5068 126.103 32.6831 127.669 29.5039C128.695 27.3598 128.695 27.3598 125.667 27.3598H123.024L122.383 28.5428C121.228 30.6376 118.56 31.3769 116.225 30.2679C115.301 29.8243 114.942 29.43 114.377 28.3456C114.018 27.6063 113.633 26.5712 113.531 26.0536L113.377 25.1418H121.1H128.798V23.7124C128.798 18.8573 126.437 14.9141 122.768 13.5587C120.895 12.8932 117.662 12.6961 115.84 13.1397ZM119.714 16.7871C121.485 17.2308 122.896 19.1284 122.896 21.1246V21.6915H118.252H113.608L113.787 20.7796C114.172 18.7834 115.25 17.4526 116.918 16.8611C118.123 16.4668 118.303 16.4421 119.714 16.7871Z" fill="#333333"/>
<path d="M139.241 13.1651C137.984 13.6087 137.394 14.1262 136.547 15.5803L135.854 16.7632L135.726 15.112L135.598 13.4361L132.852 13.3622L130.081 13.2883V23.6638V34.0146H132.904H135.726V28.1492C135.726 21.8894 135.931 20.4846 137.035 19.1291C137.804 18.1926 139.344 17.5272 141.114 17.33L142.654 17.1822V15.1613C142.654 13.5347 142.577 13.0911 142.243 12.9679C141.602 12.7214 140.293 12.82 139.241 13.1651Z" fill="#333333"/>
<path d="M157.921 13.1397C151.583 14.6923 148.376 21.3218 150.634 28.1731C151.917 32.1163 155.56 34.5068 160.282 34.5068C164.772 34.5068 168.184 32.6831 169.75 29.5039C170.776 27.3598 170.776 27.3598 167.748 27.3598H165.105L164.464 28.5428C163.309 30.6376 160.641 31.3769 158.306 30.2679C157.382 29.8243 157.023 29.43 156.458 28.3456C156.099 27.6063 155.714 26.5712 155.612 26.0536L155.458 25.1418H163.181H170.879V23.7124C170.879 18.8573 168.518 14.9141 164.849 13.5587C162.976 12.8932 159.743 12.6961 157.921 13.1397ZM161.795 16.7871C163.566 17.2308 164.977 19.1284 164.977 21.1246V21.6915H160.333H155.689L155.868 20.7796C156.253 18.7834 157.331 17.4526 158.999 16.8611C160.205 16.4668 160.384 16.4421 161.795 16.7871Z" fill="#333333"/>
<path d="M241.183 13.1401C239.027 13.6083 237.513 14.4216 236.077 15.9003C234.409 17.6008 233.562 19.326 233.177 21.889C232.638 25.6104 233.767 29.2825 236.179 31.6731C238.283 33.7432 241.26 34.6551 245.16 34.4333C248.649 34.2608 251.036 33.1518 252.986 30.7858C254.705 28.691 255.141 27.237 255.141 23.6635C255.141 21.0511 255.064 20.3611 254.577 19.2274C253.422 16.4425 251.01 14.2245 248.29 13.4112C246.52 12.8936 242.927 12.7458 241.183 13.1401ZM246.93 17.453C250.215 19.6217 250.471 27.1384 247.366 29.6522C244.801 31.7224 241.26 30.9091 239.746 27.9517C238.796 26.1033 238.591 22.7763 239.233 20.5829C240.31 17.0586 244.031 15.5553 246.93 17.453Z" fill="#333333"/>
<path d="M143.167 23.6638V34.0146H145.989H148.812L148.761 23.7131L148.684 13.4361L145.938 13.3622L143.167 13.2883V23.6638Z" fill="#333333"/>
<path d="M257.451 28.3458C255.45 29.1098 255.013 32.2397 256.707 33.7677C257.528 34.507 259.529 34.7042 260.633 34.162C262.737 33.1269 262.762 29.5041 260.684 28.469C259.888 28.0747 258.323 28.0008 257.451 28.3458Z" fill="#333333"/>
</svg>
